<svg xmlns="http://www.w3.org/2000/svg" width="979" height="308" viewBox="0 0 979 308" fill="none"><path d="M288.741 128.829V105.946H265.305V242.098H289.879V174.136C289.879 159.263 293.747 148.05 301.256 140.041C308.764 132.032 319.231 128.142 332.655 128.142C334.931 128.142 336.979 128.142 338.344 128.371V104.573C326.512 104.573 316.273 106.633 307.854 110.752C299.435 114.87 293.064 120.82 288.741 128.829Z" fill="white"></path><path d="M388.172 105.948H363.599V242.1H388.172V105.948Z" fill="white"></path><path d="M375.884 47.5962C371.106 47.5962 367.238 49.198 364.052 52.4015C360.867 55.6051 359.274 59.2663 359.274 63.8428C359.274 68.1905 360.867 72.0806 364.052 75.0553C367.238 78.0301 371.106 79.6318 375.884 79.6318C380.662 79.6318 384.53 78.0301 387.716 74.8265C390.901 71.6229 392.494 67.7329 392.494 63.1564C392.494 58.5798 390.901 54.9186 387.716 51.9439C384.53 48.9692 380.662 47.5962 375.884 47.5962Z" fill="white"></path><path d="M598.414 104.573C587.037 104.573 576.798 106.861 567.697 111.209C558.596 115.557 551.542 121.735 546.309 129.744C541.986 121.506 535.615 115.328 527.423 110.98C519.232 106.633 509.903 104.573 499.437 104.573C489.198 104.573 480.096 106.404 472.132 110.065C464.169 113.726 457.57 118.989 452.792 126.083V105.717H429.356V241.869H453.93V171.848C453.93 157.203 457.57 145.991 464.851 138.44C472.132 130.659 481.916 126.769 494.431 126.769C505.58 126.769 514.226 130.202 520.37 136.838C526.513 143.474 529.471 153.313 529.471 166.585V242.098H554.045V171.848C554.045 157.203 557.686 145.991 564.967 138.44C572.248 130.659 582.032 126.769 594.546 126.769C605.695 126.769 614.342 130.202 620.485 136.838C626.629 143.474 629.586 153.313 629.586 166.585V242.098H654.16V163.61C654.16 144.16 649.154 129.286 639.143 119.447C628.904 109.607 615.479 104.573 598.414 104.573Z" fill="white"></path><path d="M785.68 113.497C775.44 107.548 764.064 104.573 751.094 104.573C738.125 104.573 726.521 107.548 716.282 113.497C706.042 119.447 697.851 127.685 691.935 138.211C686.019 148.737 683.062 160.636 683.062 173.908C683.062 187.179 686.019 199.307 692.163 209.833C698.079 220.359 706.725 228.597 717.874 234.546C729.023 240.496 741.538 243.471 755.873 243.471C767.022 243.471 777.261 241.64 786.362 237.75C795.464 233.86 803.2 228.597 809.116 221.275L795.691 205.257C785.907 216.24 772.71 221.732 756.555 221.732C743.358 221.732 732.209 218.071 723.335 210.749C714.461 203.426 709.228 193.815 707.635 181.916H817.534C817.762 178.942 817.989 176.425 817.989 174.365C817.989 160.636 815.032 148.508 809.343 137.982C803.655 127.685 795.691 119.447 785.68 113.497ZM707.635 164.526C709 152.856 713.551 143.474 721.515 136.38C729.479 129.286 739.263 125.625 751.094 125.625C762.926 125.625 772.71 129.286 780.674 136.609C788.638 143.931 793.188 153.313 794.553 164.754H707.635V164.526Z" fill="white"></path><path d="M954.049 51.4868V126.542C948.589 119.448 941.763 113.956 933.571 110.295C925.38 106.634 916.506 104.803 906.722 104.803C893.525 104.803 881.921 107.778 871.454 113.499C860.988 119.219 853.024 127.457 847.108 137.983C841.192 148.28 838.234 160.408 838.234 174.138C838.234 187.867 841.192 199.995 847.108 210.521C853.024 221.047 860.988 229.285 871.454 235.005C881.921 240.726 893.525 243.701 906.722 243.701C916.734 243.701 925.835 241.641 934.254 237.751C942.673 233.861 949.499 228.141 954.96 220.589V242.099H978.396V51.4868H954.049ZM948.361 199.08C944.493 206.402 939.032 211.894 931.979 216.013C924.925 219.903 917.189 221.962 908.77 221.962C900.124 221.962 892.388 219.903 885.334 216.013C878.508 211.894 873.047 206.402 868.952 199.08C864.856 191.757 863.036 183.519 863.036 174.138C863.036 164.756 865.083 156.289 868.952 149.196C873.047 141.873 878.508 136.381 885.334 132.262C892.16 128.372 900.124 126.313 908.77 126.313C917.189 126.313 925.153 128.144 931.979 132.262C939.032 136.152 944.493 141.873 948.361 149.196C952.229 156.518 954.277 164.756 954.277 174.138C954.277 183.291 952.457 191.757 948.361 199.08Z" fill="white"></path><path d="M130.832 0H41.4113C18.6578 0 0 18.7637 0 41.6464V105.947C0 129.058 18.6578 147.593 41.4113 147.593H129.24C140.844 147.593 152.448 142.788 160.639 134.092C168.603 125.854 172.699 115.328 172.244 104.345C171.789 93.8187 167.465 83.7504 160.184 76.4279C152.221 68.419 141.982 64.0713 130.832 64.0713H63.9372V128.371H41.6388C29.352 128.371 19.3404 118.303 19.3404 105.947V41.6464C19.3404 29.2897 29.352 19.2214 41.6388 19.2214H131.06C154.951 19.2214 177.022 28.8321 193.404 45.9941C209.787 63.3848 218.206 86.0386 217.068 110.065C214.793 156.288 175.884 192.443 128.33 192.443H41.4113C18.6578 192.672 0 211.435 0 234.318V266.354C0 289.465 18.6578 308 41.4113 308C64.1648 308 82.8226 289.236 82.8226 266.354V211.893H127.874C185.668 211.893 233.223 167.73 235.726 110.981C237.091 81.6909 226.852 54.003 206.829 32.7221C187.033 11.6701 159.957 0 130.832 0ZM63.9372 266.582C63.9372 278.939 53.9257 289.007 41.6388 289.007C29.352 289.007 19.3404 278.939 19.3404 266.582V234.547C19.3404 222.19 29.352 212.122 41.6388 212.122H63.9372V266.582Z" fill="white"></path></svg>